# xmcd
#
# Track frame offsets: 
#        150
#        21225
#        44292
#        64480
#        81312
#        97517
#        109085
#        122895
#        143792
#        163920
#
# Disc length: 2556 seconds
#
# Revision: 2
# Processed by: cddbd v1.5.2PL0 Copyright (c) Steve Scherf et al.
# Submitted via: ExactAudioCopy v0.95b4
#
DISCID=8609fa0a
DTITLE=Buddy Guy and Junior Wells - The Masters
DYEAR=1900
DGENRE=Blues
TTITLE0=Buddy's Blues
TTITLE1=Blue Monday
TTITLE2=Every Day I Have The Blues
TTITLE3=Woman Blues
TTITLE4=Satisfaction
TTITLE5=Messing With The Kid
TTITLE6=No Use Cryin'
TTITLE7=Just To Be With You
TTITLE8=Junior's Shuffle
TTITLE9=Out Of Sight
EXTD=
EXTT0=
EXTT1=
EXTT2=
EXTT3=
EXTT4=
EXTT5=
EXTT6=
EXTT7=
EXTT8=
EXTT9=
PLAYORDER=
